<mxfile host="app.diagrams.net" modified="2024-03-29T11:53:28.982Z" agent="Mozilla/5.0 (Windows NT 10.0; Win64; x64) AppleWebKit/537.36 (KHTML, like Gecko) Chrome/122.0.0.0 Safari/537.36 Edg/122.0.0.0" version="24.2.1" etag="hzu97Yo_E9Z8uT4xxwPl" type="github">
  <diagram name="第 1 页" id="zPTVT_lEHjepKP2S_No2">
    <mxGraphModel>
      <root>
        <mxCell id="0" />
        <mxCell id="1" parent="0" />
      </root>
    </mxGraphModel>
  </diagram>
</mxfile>
